<svg xmlns="http://www.w3.org/2000/svg" width="24.888" height="31.541" viewBox="0 0 24.888 31.541"><defs><style>.a{fill:#a6225c;}</style></defs><g transform="translate(0)"><path class="a" d="M78.272,15.9a.616.616,0,0,0,.616-.616V5.544a3.084,3.084,0,0,0-3.08-3.08H71.632a1.676,1.676,0,0,0-1.323-.647h-1A3.087,3.087,0,0,0,66.5,0H66.39a3.087,3.087,0,0,0-2.81,1.817h-1a1.676,1.676,0,0,0-1.323.647H57.08A3.084,3.084,0,0,0,54,5.544V28.461a3.084,3.084,0,0,0,3.08,3.08H75.808a3.084,3.084,0,0,0,3.08-3.08V20.449a.616.616,0,1,0-1.232,0v8.012a1.85,1.85,0,0,1-1.848,1.848H57.08a1.85,1.85,0,0,1-1.848-1.848V5.544A1.85,1.85,0,0,1,57.08,3.7H60.9V4.928H57.7A1.233,1.233,0,0,0,56.464,6.16V27.845A1.233,1.233,0,0,0,57.7,29.077h17.5a1.233,1.233,0,0,0,1.232-1.232V6.16a1.233,1.233,0,0,0-1.232-1.232h-3.2V3.7h3.819a1.85,1.85,0,0,1,1.848,1.848v9.74A.616.616,0,0,0,78.272,15.9ZM62.132,3.5a.447.447,0,0,1,.447-.447h1.434a.616.616,0,0,0,.595-.455A1.851,1.851,0,0,1,66.39,1.232H66.5a1.851,1.851,0,0,1,1.783,1.363.616.616,0,0,0,.595.455H70.31a.447.447,0,0,1,.447.447V4.928H62.132ZM75.192,6.16V27.845H57.7V6.16h17.5Z" transform="translate(-54)"/></g><g transform="translate(23.656 17.305)"><path class="a" d="M439.051,281.08a.616.616,0,1,0,.181.436A.62.62,0,0,0,439.051,281.08Z" transform="translate(-438 -280.9)"/></g><g transform="translate(12.259 10.842)"><path class="a" d="M254.052,176.18a.616.616,0,1,0,.18.436A.621.621,0,0,0,254.052,176.18Z" transform="translate(-253 -176)"/></g><g transform="translate(14.97 10.842)"><path class="a" d="M301.28,176h-3.664a.616.616,0,0,0,0,1.232h3.664a.616.616,0,0,0,0-1.232Z" transform="translate(-297 -176)"/></g><g transform="translate(12.259 17.496)"><path class="a" d="M259.991,284h-6.375a.616.616,0,0,0,0,1.232h6.375a.616.616,0,1,0,0-1.232Z" transform="translate(-253 -284)"/></g><g transform="translate(12.259 24.149)"><path class="a" d="M259.991,392h-6.375a.616.616,0,1,0,0,1.232h6.375a.616.616,0,1,0,0-1.232Z" transform="translate(-253 -392)"/></g><g transform="translate(5.421 7.885)"><path class="a" d="M145.573,130.957h-2.341v-2.341a.616.616,0,0,0-1.232,0v2.957a.616.616,0,0,0,.616.616h2.957a.616.616,0,0,0,0-1.232Z" transform="translate(-142 -128)"/></g><g transform="translate(7.445 7.687)"><path class="a" d="M177.7,124.966a.616.616,0,0,0-.871,0l-.849.849-.072-.072a.616.616,0,0,0-.871.871l.508.508a.616.616,0,0,0,.871,0l1.285-1.285A.616.616,0,0,0,177.7,124.966Z" transform="translate(-174.855 -124.785)"/></g><g transform="translate(5.421 14.521)"><path class="a" d="M145.573,238.666h-2.341v-2.341a.616.616,0,0,0-1.232,0v2.957a.616.616,0,0,0,.616.616h2.957a.616.616,0,1,0,0-1.232Z" transform="translate(-142 -235.709)"/></g><g transform="translate(7.445 14.323)"><path class="a" d="M177.7,232.675a.616.616,0,0,0-.871,0l-.849.849-.072-.072a.616.616,0,0,0-.871.871l.508.508a.616.616,0,0,0,.871,0l1.285-1.285A.616.616,0,0,0,177.7,232.675Z" transform="translate(-174.855 -232.494)"/></g><g transform="translate(5.421 21.192)"><path class="a" d="M145.573,346.957h-2.341v-2.341a.616.616,0,0,0-1.232,0v2.957a.616.616,0,0,0,.616.616h2.957a.616.616,0,0,0,0-1.232Z" transform="translate(-142 -344)"/></g><g transform="translate(7.445 20.994)"><path class="a" d="M177.7,340.966a.616.616,0,0,0-.871,0l-.849.849-.072-.072a.616.616,0,1,0-.871.871l.508.508a.616.616,0,0,0,.871,0l1.285-1.285A.616.616,0,0,0,177.7,340.966Z" transform="translate(-174.855 -340.785)"/></g></svg>