<svg xmlns="http://www.w3.org/2000/svg" width="10.335" height="9.858" viewBox="0 0 10.335 9.858"><defs><style>.a{fill:#fff;}</style></defs><g transform="translate(6.986 3.537)"><path class="a" d="M348.114,189.428a.316.316,0,0,0-.525.35,1.425,1.425,0,0,1,0,1.613.316.316,0,0,0,.525.35A2.078,2.078,0,0,0,348.114,189.428Z" transform="translate(-347.53 -189.285)"/></g><g transform="translate(8.833 1.931)"><path class="a" d="M441.268,112.8a.316.316,0,0,0-.525.35,3.994,3.994,0,0,1,0,4.839.316.316,0,0,0,.525.35A4.64,4.64,0,0,0,441.268,112.8Z" transform="translate(-440.684 -112.656)"/></g><g transform="translate(7.782 2.627)"><path class="a" d="M391.332,146.031a.316.316,0,0,0-.525.35,2.748,2.748,0,0,1,0,3.439.316.316,0,0,0,.525.35A3.4,3.4,0,0,0,391.332,146.031Z" transform="translate(-390.748 -145.888)"/></g><g transform="translate(0 1.983)"><path class="a" d="M.947,116.024a.948.948,0,0,0-.947.947v4a.948.948,0,0,0,.947.947H2.526v-5.893Z" transform="translate(0 -116.024)"/></g><g transform="translate(2.957 0)"><path class="a" d="M152.235.2,150,1.906V7.952l2.235,1.7a.958.958,0,0,0,1.553-.666V.868A.958.958,0,0,0,152.235.2Z" transform="translate(-150 0)"/></g></svg>