<svg xmlns="http://www.w3.org/2000/svg" width="54" height="54" viewBox="0 0 54 54"><defs><style>.a{fill:#a6225c;}.b{fill:#f9f9f9;}</style></defs><g transform="translate(-188 -251)"><circle class="a" cx="27" cy="27" r="27" transform="translate(188 251)"/><path class="b" d="M8.938,17.875A4.875,4.875,0,0,0,13.813,13V4.875a4.875,4.875,0,0,0-9.75,0V13A4.875,4.875,0,0,0,8.938,17.875ZM17.063,9.75H16.25a.812.812,0,0,0-.812.813V13a6.508,6.508,0,0,1-7.149,6.469,6.7,6.7,0,0,1-5.851-6.758V10.563a.812.812,0,0,0-.812-.812H.813A.812.812,0,0,0,0,10.563V12.6a9.217,9.217,0,0,0,7.719,9.226v1.734H4.875a.812.812,0,0,0-.812.813v.813A.812.812,0,0,0,4.875,26H13a.812.812,0,0,0,.813-.812v-.812A.812.812,0,0,0,13,23.563H10.156V21.848A8.946,8.946,0,0,0,17.875,13V10.563A.812.812,0,0,0,17.063,9.75Z" transform="translate(206.438 265)"/></g></svg>