<svg xmlns="http://www.w3.org/2000/svg" width="103" height="103" viewBox="0 0 103 103"><defs><style>.a{fill:#eceff1;}.b{fill:#455a64;}</style></defs><g transform="translate(-0.934 -0.934)"><circle class="a" cx="51.5" cy="51.5" r="51.5" transform="translate(0.934 0.934)"/><path class="b" d="M140.984,133.51a19.43,19.43,0,0,0-8.049-3.7l-14.327-2.864a3.222,3.222,0,0,1-2.587-3.19v-3.274a39.073,39.073,0,0,0,2.7-4.791,26.278,26.278,0,0,1,2.3-4.016c2.9-2.9,5.7-6.165,6.572-10.37.81-3.945.013-6.015-.921-7.681,0-4.16-.131-9.367-1.117-13.156-.118-5.13-1.052-8.013-3.4-10.539-1.659-1.79-4.1-2.207-6.069-2.539a10.638,10.638,0,0,1-2.228-.521A23.12,23.12,0,0,0,102.817,64c-8.6.352-19.181,5.807-22.722,15.532-1.1,2.962-.987,7.825-.9,11.73l-.085,2.35c-.843,1.64-1.672,3.724-.856,7.681.862,4.212,3.665,7.48,6.618,10.422a28.55,28.55,0,0,1,2.293,4,40.419,40.419,0,0,0,2.718,4.772v3.274a3.238,3.238,0,0,1-2.6,3.19l-14.34,2.864a19.474,19.474,0,0,0-8.023,3.7,3.254,3.254,0,0,0-.385,4.739,52.139,52.139,0,0,0,76.83,0,3.253,3.253,0,0,0-.385-4.739Z" transform="translate(-51.446 -51.693)"/></g></svg>